<svg xmlns:dc="http://purl.org/dc/elements/1.1/" xmlns:cc="http://creativecommons.org/ns#" xmlns:rdf="http://www.w3.org/1999/02/22-rdf-syntax-ns#" xmlns:svg="http://www.w3.org/2000/svg" xmlns="http://www.w3.org/2000/svg" xmlns:sodipodi="http://sodipodi.sourceforge.net/DTD/sodipodi-0.dtd" xmlns:inkscape="http://www.inkscape.org/namespaces/inkscape" viewBox="0 0 100 125" version="1.1" x="0px" y="0px"><defs><clipPath clipPathUnits="userSpaceOnUse" id="a"><path d="m -670.52304,1859.6923 -0.2033,0.1488 -0.14086,0.1032 -0.0647,0.17 0.19929,0.4096 c 0.0267,0.088 0.0534,0.2783 0.0704,0.4846 l -0.0476,0.094 -0.0209,-0.078 -0.17511,0.107 0.0875,-0.2449 -0.04,-0.052 0.13895,-0.1545 -0.15799,-0.3077 -0.18083,0 0,-0.1984 -0.22156,0.2393 0,0 -0.019,-0.031 -0.43533,0.035 0.0761,0.4228 0.24669,0.3698 0.0457,-0.038 c 0,0.02 0,0.035 0.0191,0.044 0.019,0.023 0.0419,0.034 0.0571,0.042 0.0343,0.02 0.0552,0.02 0.0704,0.02 0.0381,0 0.0647,0 0.0647,0 l 0.0191,0 0.0209,0 -0.15228,0.1335 0,0.1644 c -0.0305,0 -0.0647,0.02 -0.18273,0 l -0.19911,-0.058 -0.28932,-0.1488 -0.30323,-0.063 -0.42505,-0.2003 -0.30169,-0.1871 -0.25431,-0.2412 -0.25811,-0.3185 -0.37499,-0.09 -0.26229,1.1134 0.15418,0.2826 c 0,0.027 0.0209,0.076 0.0305,0.1415 l 0,0.659 -0.0685,0.3038 0.15989,0.7788 0.11802,0.1184 -0.28247,0.04 -0.0229,0.5702 0.19567,0.088 c 0,0.02 0.0191,0.025 0.0191,0.038 l -0.0761,0.189 -0.29579,0.035 -0.0495,0.4473 0.25488,0.3348 -0.20672,0.074 -0.24536,0.708 -0.31312,0.9961 -0.31845,0.6457 -0.49148,1.408 -0.62872,1.3436 -0.78975,1.2558 -0.20766,0.3172 -0.0781,0.8819 -0.13894,0.6518 0.24859,0.3295 -0.019,0.045 -0.16179,0.4937 -0.019,0.7348 -0.4869,1.1302 -0.30742,0.2653 -0.0267,0.094 -0.16941,0.08 -0.16561,0.4765 -0.0952,0.3867 0.29332,0.4555 0.15609,0.4054 0.10278,0.33 -0.0267,0.5921 -0.17322,0.303 -0.0666,0.5992 -0.1047,0.4085 0.19701,0.4366 0.27011,0.4539 0.21471,0.4708 0.11801,0.3728 -0.0267,0.2642 -0.0362,0.058 0,0.2968 0.54554,0.6204 -0.0343,0.172 -0.0628,0.2203 -0.0704,0.2122 0.019,0.8819 0.2286,0.4085 0.22557,0.3034 0.24593,0.046 0.0571,0.1622 -0.0875,0.2754 -0.13895,0.1089 -0.17322,0 -0.10659,0.5192 0.059,0.3456 0.32093,0.4418 0.15418,0.5131 0.14466,0.476 0.13515,0.3202 0.3352,0.5912 0.13135,0.2358 0.0532,0.3272 0.15038,0.09 0,0.1432 -0.0723,0.1793 -0.17892,0.7231 -0.0628,0.2607 0.31655,0.3636 0.44275,0.05 0.422,0.1699 0.40239,0.2213 0.26231,0 0.23583,0.2556 0.24632,0.4683 0.12752,0.26 0.43438,0.2429 0.44655,0.076 0.0952,0.1414 0.04,0.1932 -0.15989,0.072 0.0971,0.2764 0.3944,0.1009 0.21566,0.02 0.25678,0.4218 0.37137,0.412 0.0743,0.2134 0.24575,0.4045 0.0267,0.2887 0,0.9501 0.0743,0.2775 1.06804,0.1565 1.94079,0.276 1.22107,0.09 -0.11611,0.099 -0.0552,0.2329 0.0875,0.1736 1.88711,1.0875 1.19005,0.7595 1.44645,0.8572 1.66916,1.0152 1.23326,0.2464 2.50803,0.2764 0,0.058 1.77251,0.2341 0.12753,-1.0007 1.50736,0.2394 1.38384,0.1833 -5.8e-4,0 0.0723,0.02 0.21033,0.2403 0.15037,0.4647 0.46521,0.2305 0.11802,0.2968 0.7098,0.8089 0.14847,0.1833 0.47797,0.2039 0.10659,0.2036 0.13896,0.085 0.0438,0.2351 0.31064,0.6366 0,0.8058 0.24231,0.5141 0.76369,0.8141 0.50803,0.2092 0.12182,0.1355 0,0.09 0.45531,0.2693 0.18845,0.065 0.17512,0.1126 0.34491,0.1318 0.30188,-0.3117 0.44942,-0.6405 0.0952,-0.3729 0.19034,-0.2745 0.31141,-0.1299 0.37822,-0.1528 0.27239,0.2043 0.76101,0.069 0.63024,0.1069 0.17893,0.1508 0,0.099 0.29085,0.35 0.55886,0.5076 0.019,0.1375 0.17893,0.198 0.0743,0.3999 0.51451,1.2123 -0.019,0.2413 0.45188,0.2823 0.33539,0.6417 0.363,0.4748 0.31617,0.1279 0.099,0.1431 -0.12563,0.436 0.11612,0.1757 0.0761,0.04 -0.019,0.2043 -0.0837,0.082 0.099,0.354 0.31084,0.191 0.11801,0.6107 0.23928,0.4443 0.79697,0.3606 0.49243,0.1126 0.41554,0.3074 0.37954,0.078 0.12754,-0.049 0.47834,0.099 0.6036,0.4213 0.39478,-0.2545 0.14656,-0.2207 0.15799,-0.044 -0.0267,-0.2568 -0.0514,-0.5313 -0.25582,-0.7222 -0.0799,-0.5897 0.0285,-0.4877 0.19035,-0.6323 0.41763,-0.636 0.53258,-0.7565 0.51413,-0.3181 0.17322,-0.145 0.60378,-0.3321 0.55829,-0.2416 0.53849,-0.3337 0.28095,-0.2182 0.5503,-0.53 0.11802,-0.072 0.21052,-0.1507 0.28039,-0.2137 0.0875,-0.1815 0.91995,-0.4299 0.45245,-0.1297 5.7e-4,0.02 0.60493,-0.1978 0.75035,-0.033 1.00237,0.3522 0.68069,0.1203 0.35442,-0.1394 0.27715,0.097 0.4319,0.1317 0.17131,-0.4474 -0.38089,-0.1374 0.12373,-0.069 0.21566,0.044 0.10092,0.17 0.0438,0.3065 0.50081,0.035 0.0743,0.076 -0.0229,0.045 -0.2307,0.1489 0.28667,0.2927 0.89501,0.3865 0.45169,-0.1642 0.0914,-0.2362 0.21909,-0.053 0.11993,-0.101 0.019,0 0.0381,0.1318 -0.29351,0.1088 0.25544,0.2735 0.45265,-0.1776 0.22822,-0.3483 0.25602,-0.1605 c 0.019,0 0.0209,0.02 0.0381,0.02 0,0 0.12373,0.02 0.21472,0.029 0.0799,0.02 0.14275,0.025 0.15608,0.027 l 0.34966,0.1737 0.11421,0.1718 0.30913,0 0.18083,0.1565 0.32778,-0.4545 0,-0.3203 -0.20863,0 -0.32758,-0.2693 -0.57428,-0.078 -0.20767,-0.1488 0.0362,-0.085 0.23621,0.034 0.0552,-0.2244 0.0799,0 0.25221,-0.4428 -0.15799,-0.2351 -0.0438,-0.3718 -0.31863,0.034 -0.24536,0.2709 -0.0419,0.1678 -0.12373,-0.027 -0.0229,-0.042 0.1085,-0.122 0.18844,-0.1662 0.19815,-0.1431 0.20939,-0.3437 0.1142,0.053 0.68392,-0.202 0.15989,0.027 0.15229,0.086 0.64869,0 0.0285,-0.1472 0.24669,0 0.15227,0.038 0.17322,-0.3782 0.1085,-0.3245 0.0514,0.019 0.2602,0.5193 -0.48977,0.3524 0.64015,0.074 0.47891,-0.2251 0.48691,-0.09 0.58056,-0.2076 0.57714,-0.049 0.40638,-0.063 0.70772,0.1678 0.76615,0.3771 0.1637,0.1471 0.27619,0.1089 0.11421,0.1374 0.0457,0.406 0.4494,-0.1814 0.39174,0 0.39021,-0.2183 0.33768,-0.3294 0.33844,0.02 0.1104,-0.2703 -0.0952,-0.1162 0,-0.044 0.29027,-0.06 0.21091,0 0.26649,0.1374 0.37765,0.1318 0.23926,0.3718 0.25127,0.09 0.10849,0.3326 0.34986,0.1699 0.1618,0.2637 0.23888,0.082 0.45189,0.1145 0.10849,0.2669 0.28686,0.3509 0,0.8865 -0.14847,0.4763 0.0362,0.3127 0.13324,0.504 0.23622,0.5452 0.0781,-0.046 -0.16179,0.189 0.42694,0.4549 0.24403,0.2931 0.28343,0.5311 0.28153,0.3826 0.22575,0.5496 0.32054,0.063 0.13514,-0.1814 0.0534,0.035 0.22309,0.3575 0.0647,0.3602 0.42733,0.6178 0.14276,-0.2266 0.272,0.021 0.29962,0.196 0.30741,0.4738 0.0704,0.31 0.0361,0.3342 0.16751,0.1451 0.19663,0.076 0.31026,-0.1279 0.12753,-0.1431 0.35348,-0.02 0.19549,-0.096 -0.14467,0.2402 -0.40639,0.3959 -0.32226,0.1871 -0.39287,0.2452 -0.213,-0.04 -0.0343,-0.019 0,-0.1603 -0.201,0.141 -0.25183,0.1776 -0.12754,0.2091 -0.0743,0.02 -0.46216,0.1259 0.31787,0.3132 0.30361,-0.1604 0.40259,-0.1411 0.46521,-0.1659 -0.1066,-0.281 0.30779,0.2733 0.35385,-0.2744 0.5326,-0.4284 0.38945,-0.4136 0.25126,-0.6784 0.10659,-0.1871 0.0229,-0.509 -0.17322,0 -0.0305,0.021 -0.0743,0.05 0.0247,-0.067 -0.0209,-0.1355 0.21548,-0.1203 0.0457,-0.436 -0.0666,-0.1871 -0.0495,-1.1852 -0.13134,-0.7897 -0.45721,-0.8475 -0.34796,-0.5789 -0.25792,-0.5488 -0.28267,-0.2872 -0.2545,-0.6574 0.04,-0.063 0.16751,-0.1928 -0.21357,-0.3904 -0.40906,-0.3814 -0.4633,-0.536 -0.35863,-0.6167 -0.51564,-0.9287 -0.36376,-0.9625 -0.2031,-0.6726 -0.0875,-0.729 0.21719,-0.9745 0.15038,-0.448 -0.0457,-0.2454 0.33178,-0.6369 -0.0534,-0.1413 0.20844,-0.1279 0.55257,-0.6191 -0.0685,-0.2341 0.17131,0 0.37042,-0.3606 0.17322,-0.088 0.2326,-0.3591 0.27239,-0.2774 0.18845,-0.3219 0.25011,-0.069 0.11611,-0.2897 0.18273,-0.092 0.0514,-0.6845 0.2368,-0.5697 0.58627,-0.6008 0.42332,-0.1031 0.5442,-0.059 0.0666,-0.3286 0.18272,-0.6207 0.30875,-0.4376 0.61006,-0.5134 0.48215,-0.2307 0.21662,-0.05 0.0971,0.04 0.22157,0 0.34396,-0.5488 0.2977,-0.5581 0.099,0.02 0.15418,-0.1622 0.25716,-0.2274 0.38888,-0.1776 0.019,-0.4301 -0.0438,-0.4778 -0.2661,-0.5428 0,-0.1564 -0.16561,0.058 -0.019,-0.045 -0.25031,-0.2521 -0.33654,-0.6218 -0.15988,-0.4381 0,-0.1393 -0.0952,0.023 -0.41515,-0.7058 -0.4435,0.1298 0.0532,-0.029 -0.0704,-0.3826 -0.17132,-0.1735 -0.019,-0.1586 -0.15418,-0.1049 0.17131,0 0.0533,-0.3361 -0.1123,-0.074 0.0457,-0.1853 -0.14656,-0.1163 0.0419,-0.4457 -0.14276,-0.209 -0.32797,-0.042 -0.0875,-0.084 0.0761,0.02 0.1675,-0.3714 -0.16369,-0.2371 0,-0.023 0.15418,0.2025 0.14656,0.02 0.13896,0.3151 0.019,0.1872 0.2111,0.3529 0.11421,-0.1203 c 0,0 0.0267,-0.025 0.0514,-0.058 0.019,-0.02 0.0267,-0.033 0.04,-0.053 0.019,-0.022 0.0343,-0.036 0.0343,-0.1032 0,-0.029 0,-0.033 0,-0.045 0,-0.02 0,-0.029 0,-0.044 0,-0.033 -0.019,-0.071 -0.0247,-0.107 -0.0191,-0.074 -0.0381,-0.1432 -0.0381,-0.1432 l -5.6e-4,0 -0.0267,-0.082 0.19625,0.2571 0.15989,0.063 0,0.096 -0.0685,0.2816 -0.15799,0.4288 -0.0514,0.5911 0.2109,0.6773 0.38679,-0.3437 0.20025,-0.5589 -0.0495,-0.3581 0.04,-0.407 0.27904,-0.3708 0.12182,-0.5099 -0.0305,0 0.14086,-0.2923 0.0247,-0.4911 0.019,0 -0.019,-0.036 0,-0.1545 -0.0514,0.02 -0.24974,-0.8306 0.18464,0 0.26763,-0.3169 0.0799,-0.4923 0.25982,-0.388 0.31198,-0.6708 0.12563,-0.6146 -0.0704,-0.1259 -0.0191,-0.9359 -0.2187,-0.4631 0.42922,-0.122 0.57619,-0.199 0.27373,-0.1048 0.71417,-0.5426 0.38946,-0.2979 0.47015,-0.5053 -0.67288,-0.2662 -0.18083,0.211 -0.26971,0.257 -0.72808,0.3642 -0.16751,-0.02 -0.15609,-0.063 0.11041,-0.076 0.35765,-0.3355 0.11231,-0.1241 0.0533,0.044 0.32855,-0.1792 0.50822,-0.1127 0.6546,-0.3319 0.42581,-0.1451 0.27429,-0.2219 0.0781,-0.1279 0.0895,0.02 0.44504,-0.2385 0,0 0.059,-0.029 0,0.3167 0.22365,-0.17 0.20881,0.1719 0.28248,-0.1374 0.35499,-0.1546 -0.12372,0.1621 0.67326,-0.021 0.27314,-0.098 -0.19034,-0.4256 -0.31616,-0.038 0,0.1318 -0.0209,0.085 -0.18464,0.059 -0.0666,0.09 -0.34605,-0.2918 -0.0819,0 0.0971,-0.1145 0.34967,-0.1777 0.50613,-0.1793 -0.0514,-0.3617 -0.1066,-0.3243 -0.22365,-0.2835 -0.23299,-0.107 -0.28551,0.021 -0.16371,0.1643 0.23013,0.309 0.16941,-0.094 0.1066,0.085 0.0476,0.1602 -0.1047,0.1049 -0.1675,0.072 -0.2564,-0.036 -0.35385,-0.5554 -0.26859,-0.311 -0.27448,0 -0.0438,0.031 -0.0781,-0.1069 0.019,-0.073 0.26059,-0.5727 -0.30018,-0.4692 0,-0.036 0.019,-0.02 0.1066,-0.3273 0.0209,0.019 0.14276,-0.8013 0.019,-0.3907 0.1656,-0.1472 -0.099,-0.3346 0.17131,-0.2014 0.11992,0.107 0.20729,-0.078 0.59102,-0.3455 0.0267,-0.2609 0.2463,-0.04 0.21377,-0.3475 0,-0.04 0.11992,0.1947 0.35804,-0.189 -0.061,-0.2601 0.17893,0.02 0.059,-0.3614 0.0209,-0.029 0.0857,0.092 0.0494,0 c 0,0 0.0381,0 0.0781,0 0.0209,0 0.0438,0 0.0723,-0.02 0.019,0 0.0362,-0.02 0.059,-0.031 0.0229,-0.019 0.0552,-0.065 0.0552,-0.1126 0,0.02 0,-0.05 0.019,-0.096 0,-0.023 0,-0.027 0,-0.042 l 0.11992,-0.1147 -0.0191,-0.038 0.1104,0 0.50899,-0.5885 0.30951,-0.2835 0.21795,-0.074 0.23984,-0.5467 0,-0.2583 -0.24631,-0.4145 -0.24022,-0.2642 -0.51051,0.029 0,0 -0.0229,-0.02 -0.019,-0.4479 -0.12182,-0.2964 -0.57657,0 -0.87808,-2.9538 -0.24402,-0.1241 -0.60664,-0.2494 -0.2227,-0.029 -0.0457,0.045 -0.16941,0.17 -0.44008,0.3239 0,0.1009 -0.13896,-0.033 -0.0799,-0.1472 0,-0.1943 -0.24936,-0.031 -0.21262,0 -0.24536,0.5 -0.28742,0.8981 -0.18274,0.5065 0.0191,0.5147 0.019,0.1259 -0.0648,0.2244 -0.0933,0.1128 0,0.6905 0.17511,0.2224 -0.11421,0.3253 -0.26116,0.4805 -0.0857,0.5829 0,0.099 0,0 -0.32455,0.022 0.0191,0.036 -0.0191,0 0,0.1777 -0.0419,-0.033 -0.19378,-0.1975 -0.25887,0.348 0,0.4533 -2.68733,0.7043 0,0.022 -0.69819,0.197 -0.42543,0.1375 -0.3114,-0.02 -0.56648,0.1375 -0.32873,0.1317 -0.26097,0.2041 -0.21776,0.2544 -0.27505,0.3803 -0.29123,0.4625 -0.14085,0.2857 -0.0495,0.063 -0.61044,0.5861 0.0247,0.3569 0.11611,0.1719 0.23242,0.1089 0.0666,0 -0.1085,0.2065 0.0476,0.2161 0.13325,0.196 0,0.1105 -0.10277,0.061 -0.23451,0 -0.20234,0.2508 -0.16941,0.3142 -0.1618,0.1356 -0.48691,0.045 -0.28228,0.1241 -0.17702,0.1127 -0.0819,0 -0.1972,-0.1355 -0.66926,0.02 -0.33406,0.053 -0.4064,0.1317 -0.44408,0.1529 -0.38336,0.239 0.24593,0.791 0.18274,0.02 0.0913,0.2209 0.002,0.02 -0.0666,0.058 -0.22784,0.3045 -0.0457,0.1506 -0.15799,0.1432 -0.19131,0.126 -0.10092,0.1679 -0.1085,0.099 -0.0457,0.036 0,-0.073 -0.71971,0.7501 -0.1161,0.046 -0.48806,0.3565 0,0.047 -0.099,0.019 0.059,-0.1162 -0.59541,0.4014 -0.39458,0.2362 -0.34511,0.3835 -0.36756,0.3611 -0.28076,0.071 -0.29828,0.049 -0.5345,0.2572 -0.12752,0.019 -0.33749,-0.309 -0.52232,0.067 -0.21757,-0.1259 -0.26134,-0.1508 0,-0.067 0.18274,-0.3286 0.22631,-0.1983 -0.0209,-0.5127 0.0952,-0.096 0.16369,-0.051 0.0247,-0.4192 0.0495,-0.099 0.19321,0.038 0.30285,-0.1546 -0.0362,-1.0601 -0.32416,-0.8385 -0.22519,-0.9245 -0.26781,-0.3603 -0.3453,-0.2418 -0.21965,0.1586 -0.42011,0.1949 -0.20291,0.5369 -0.24326,0.3351 -0.0323,0.02 -0.0723,-0.033 c 0,0 -0.059,-0.033 -0.11231,-0.072 -0.0229,-0.02 -0.0438,-0.035 -0.0571,-0.046 0,-0.022 0,-0.04 0,-0.069 0,-0.052 0.019,-0.1127 0.019,-0.1719 0,-0.074 0,-0.1032 0.0191,-0.1451 l 0.31921,-0.1241 0.0951,-0.4075 0.0533,-0.2101 0.2543,-0.1757 -0.0362,-1.1124 -0.19683,-0.2811 -0.1123,-0.073 -0.019,-0.052 0.19034,0.04 0.0362,-0.3723 -0.26878,-0.2561 -0.15227,-0.3074 -0.31312,0 -0.41135,-0.1353 -0.5579,-0.3487 -0.35957,0 -0.0362,0.034 0,0 -0.39974,-0.3004 -0.0609,0.085 -0.26934,0.1679 -0.34586,0.2771 0.0457,0.5074 0.0913,0.033 -0.19321,0.025 -0.19986,0.2467 -0.019,0.1337 -0.10092,-0.1009 -0.33027,0.1413 -0.0951,0.4182 -0.23527,0.097 -0.22023,0.2443 -0.0323,0.1934 0.0609,0.076 -0.0305,0.1165 -0.2446,0.052 0,0.2422 0.0723,0.2289 -0.10278,0.5713 -0.16561,0.4227 0.0666,0.5217 0.0381,0.084 -0.0628,0.1933 -0.0361,0.094 -0.0419,0.3355 0.36833,0.6294 0.27866,0.6326 0.13324,0.4473 -0.0743,0.4392 -0.0933,0.5829 -0.24041,0.5186 -0.0267,0.2495 -0.33064,0.3202 0,0 -0.31978,0.1872 -0.19454,0.1833 -0.0267,0 -0.1104,-0.072 -0.35082,-0.107 -0.0743,-0.2376 -0.13705,-0.399 -0.1656,-0.1871 -0.12183,-0.2192 -0.019,-0.5157 -0.0438,0 0.0514,-0.4071 -0.1656,-0.4675 -0.0628,-0.6197 -0.10278,-0.2179 0.0799,-0.2597 0.0761,-0.2776 0.1618,-0.2875 -0.0723,-0.3877 -0.059,-0.3228 0.0362,-0.1241 0.1993,-0.2555 0.019,-0.3586 -0.0704,-0.1164 0.0533,-0.211 0.0494,-0.3122 0.25983,-0.5508 0.29769,-0.7012 0.019,-0.2745 -0.0951,-0.2733 -0.23603,0.1451 -0.42981,0.6554 -0.26134,0.3907 -0.20273,0.1891 -0.0723,0.2117 -0.11612,0.065 0.0514,-0.094 0.19663,-0.4482 0.17513,-0.1604 0.0933,-0.197 0.019,0.019 0.38583,-0.8715 0.0952,-0.4033 0.13134,-0.2964 0.0647,0.094 0.15989,0 0.38489,-0.2106 0.10092,0.1127 0.14848,0.049 0.20938,-0.1833 0.10093,-0.2821 0.16369,-0.053 0.72714,-0.07 0.18844,-0.2558 0.42828,-0.019 0.57199,0.1279 0.21643,0 0.31179,-0.1413 0.21261,0.019 0.20482,-0.065 0.32207,0.044 0.10278,0.04 0.12183,-0.031 0,0.029 0.46769,0.023 0.20899,-0.2018 0,-0.061 c 0,0 -0.002,-0.042 0,-0.088 0,-0.023 0,-0.047 -0.019,-0.076 0,-0.029 0,-0.069 -0.0819,-0.1069 0.0419,0.021 0.019,0 -10e-4,0 -0.019,-0.02 -0.0323,-0.036 -0.0494,-0.058 -0.0191,-0.025 -0.0267,-0.033 -0.04,-0.047 l 0,-0.1009 -0.14276,0.019 -0.21376,0.025 -0.24079,0.025 -0.0647,0.2115 -0.25088,-0.2432 0,-0.7365 -0.3076,-0.099 -0.14276,0.1431 -0.56971,0.1528 -0.15799,0.038 -0.20576,-0.059 0,-0.6023 -0.29562,-0.033 -0.28456,0.1432 -0.41839,0.1833 -0.64794,0.035 -0.37251,0.1259 -0.40963,0.3668 -0.11611,0.072 -0.11421,0 -0.1085,0.067 -0.0799,-0.023 -0.20976,-0.1718 -0.19129,0.1297 -0.28876,0.02 -0.21471,-0.219 -0.14847,-0.3131 -0.18465,-0.1488 -0.36146,-0.1106 -0.18655,0 -0.17131,-0.1737 -0.36413,0.3026 0.22099,-0.2974 0.04,-0.2011 0.20518,-0.074 0.13896,-0.2998 0.3727,-0.099 0.0819,-0.2402 -0.12183,-0.1241 0.0209,-0.105 -0.17512,0.02 -0.48653,0.054 -0.46445,0.2659 -0.24421,0.2452 -0.11231,0.1585 -0.17893,0.082 -0.22746,0.3479 -0.0191,0.088 -0.3805,0.1871 -0.22062,0.1814 -0.59522,0.097 -0.13324,0.1297 0,0.082 -0.2722,0.1793 -0.27599,0.082 -0.0723,0.058 -0.0723,-0.096 -0.0799,0.1934 -0.0285,-0.052 -0.3451,-0.1032 -0.1618,0.023 -0.0514,0.029 0,0 0.17513,-0.2809 0.20424,-0.2082 -0.26554,-0.2055 -0.019,-0.1089 -0.15038,0.059 -0.2189,0.085 -0.28762,0.1954 -0.70771,0.3153 -0.24935,0.053 -0.22575,-0.036 0,0 0.23622,-0.1833 0.14466,-0.02 0.45608,-0.5165 0.18844,-0.088 0.24212,-0.4197 0.22423,-0.338 0.27524,-0.2352 0.44942,-0.1927 0.91043,-0.4076 0.4418,-0.2107 0.12563,-0.4665 -0.68031,0.058 -0.0267,0.038 -0.13895,-0.2473 -0.99229,0.038 -0.0628,0.054 0,-0.025 -0.12372,-0.2754 -0.38908,0.076 -0.33215,0.3352 -0.11421,0.06 -0.24707,0 -0.15038,-0.058 0,-0.2348 -0.29789,-0.038 -0.0267,0.027 -0.11421,-0.058 -0.0647,-0.3745 -0.33235,0.1106 -0.0285,0.058 -0.12754,-0.025 -0.50156,-0.2333 -0.40411,-0.2759 -0.28172,0 -0.14847,-0.1089 -0.31331,0.094 -0.15989,0.1602 -0.019,0.067 -0.24879,0 0,-0.2061 -0.643,-0.033 -0.0305,-0.1528 -0.52708,0 -0.0971,-0.096 -0.13324,-0.5737 -0.0857,-0.6183 -0.272,-0.1146 -0.37194,-0.078 0,0.052 -0.0723,0.02 -0.0285,0.7988 -2.85065,0 -0.002,0 -2.87787,-0.058 -1.82429,-0.065 -2.59977,-0.128 -2.45167,-0.1889 0,-0.038 -3.13255,-0.2897 -2.86949,-0.356 -2.87216,-0.406 -3.17024,-0.5313 -1.80754,-0.3403 -3.2243,-0.6967 -0.0343,0 -1.21574,-0.2411 0,-0.027 -0.0743,0 0,0 -1.61567,-0.3666 -2.25201,-0.5651 -1.96819,-0.5661 -0.84362,-0.1938 -0.94507,-0.2735 -0.3392,-0.1164 0,-0.1622 0,0 z m 48.97987,6.9528 -0.0685,0.02 -0.24841,0.063 -0.53335,0.3951 -0.22899,0.084 -0.29275,0.3392 0.33063,0.2437 0.27657,-0.1241 0.34587,-0.2092 0.60854,-0.6166 -0.18844,-0.1913 z m -53.0674,26.11 -0.19035,0.103 -0.15989,0.088 -0.0323,-0.038 -0.0609,0 -7.6e-4,0 -0.51908,0.02 0.14657,0.3275 0.0895,0.197 0.5149,0.02 0.019,-0.1163 0.13324,0.1355 0.5404,0.031 0.30646,-0.2341 -0.50405,-0.2042 -0.2781,-0.166 0,-0.1431 z m 2.01578,1.969 -0.15228,0.029 -0.20634,0.038 0,0.2713 0.20234,0.2714 0.10092,0.1279 0.30474,0.1106 0.12182,-0.3187 -0.13705,-0.2567 -0.23545,-0.1814 0,-0.092 z m -0.50119,0.6637 0,0.3896 -0.0476,0.019 0,0.326 c 0,0.049 0,0.065 0.0191,0.09 0,0.025 0.019,0.047 0.0285,0.071 0.019,0.044 0.04,0.084 0.04,0.084 l 0,0.022 0.19035,0.1832 0.3963,-0.069 -0.22043,-0.3565 -0.41267,-0.7464 z" style="color:#000000;text-indent:0;text-decoration-line:none;text-transform:none;direction:ltr;block-progression:tb;baseline-shift:baseline;enable-background:accumulate;" display="inline" overflow="visible" visibility="visible" fill="#3b3c3d" fill-opacity="1" fill-rule="nonzero" stroke="none"/></clipPath></defs><g transform="translate(0,-952.36216)"><path d="m -687.70807,1855.7483 0,5.0464 0,5.0465 0,5.0465 0,5.0464 0,5.0466 0,5.0464 0,5.0466 49.8587,0 74.78955,0 0,-5.0466 -74.78955,0 0,-5.0464 74.78955,0 0,-5.0466 -74.78955,0 0,-5.0464 74.78955,0 0,-5.0465 -74.78955,0 0,-5.0465 74.78955,0 0,-5.0464 -74.78955,0 -49.8587,0 z m 4.17518,1.6785 0.45932,1.4065 1.46563,0.016 -1.17782,0.878 0.43959,1.4173 -1.1877,-0.8643 -1.19461,0.8615 0.44354,-1.4115 -1.17686,-0.8851 1.46171,-0.014 0.4672,-1.4085 z m 8.29615,0 0.45931,1.4065 1.46664,0.016 -1.17883,0.878 0.43959,1.4173 -1.18769,-0.8643 -1.1946,0.8615 0.44453,-1.4115 -1.17785,-0.8851 1.4627,-0.014 0.4662,-1.4085 z m 8.31093,0 0.45931,1.4065 1.46565,0.016 -1.17784,0.878 0.4396,1.4173 -1.18769,-0.8643 -1.1946,0.8615 0.44452,-1.4115 -1.17784,-0.8851 1.46269,-0.014 0.4662,-1.4085 z m 8.29615,0 0.4603,1.4065 1.46564,0.016 -1.17783,0.878 0.4386,1.4173 -1.18769,-0.8643 -1.19362,0.8615 0.44354,-1.4115 -1.17686,-0.8851 1.46172,-0.014 0.4662,-1.4085 z m 8.32572,0 0.45931,1.4065 1.46565,0.016 -1.17784,0.878 0.43959,1.4173 -1.1877,-0.8643 -1.1946,0.8615 0.44454,-1.4115 -1.17786,-0.8851 1.46271,-0.014 0.4662,-1.4085 z m 8.29616,0 0.46029,1.4065 1.46564,0.016 -1.17784,0.878 0.4386,1.4173 -1.18768,-0.8643 -1.19362,0.8615 0.44354,-1.4115 -1.17686,-0.8851 1.46171,-0.014 0.46622,-1.4085 z m -37.39526,3.5158 0.45931,1.4064 1.46565,0.016 -1.17785,0.8783 0.43959,1.4172 -1.18769,-0.8644 -1.1946,0.8615 0.44452,-1.4115 -1.17784,-0.8852 1.4617,-0.014 0.46721,-1.4085 z m 8.29614,0 0.4603,1.4064 1.46565,0.016 -1.17784,0.8783 0.4386,1.4172 -1.1877,-0.8644 -1.1936,0.8615 0.44353,-1.4115 -1.17685,-0.8852 1.4617,-0.014 0.46621,-1.4085 z m 8.31094,0 0.46029,1.4064 1.46565,0.016 -1.17785,0.8783 0.43862,1.4172 -1.1877,-0.8644 -1.19361,0.8615 0.44353,-1.4115 -1.17784,-0.8852 1.4627,-0.014 0.46621,-1.4085 z m 8.29713,0 0.45932,1.4064 1.46564,0.016 -1.17784,0.8783 0.43959,1.4172 -1.18769,-0.8644 -1.19461,0.8615 0.44354,-1.4115 -1.17686,-0.8852 1.46172,-0.014 0.46719,-1.4085 z m 8.32473,0 0.4603,1.4064 1.46564,0.016 -1.17784,0.8783 0.43863,1.4172 -1.18771,-0.8644 -1.19361,0.8615 0.44352,-1.4115 -1.17783,-0.8852 1.46269,-0.014 0.46621,-1.4085 z m -37.35879,3.5413 0.45932,1.4065 1.46563,0.016 -1.17782,0.8782 0.43959,1.4174 -1.1877,-0.8645 -1.19461,0.8615 0.44354,-1.4115 -1.17686,-0.8852 1.46171,-0.014 0.4672,-1.4085 z m 8.29615,0 0.45931,1.4065 1.46664,0.016 -1.17883,0.8782 0.43959,1.4174 -1.18769,-0.8645 -1.1946,0.8615 0.44453,-1.4115 -1.17785,-0.8852 1.4627,-0.014 0.4662,-1.4085 z m 8.31093,0 0.45931,1.4065 1.46565,0.016 -1.17784,0.8782 0.4396,1.4174 -1.18769,-0.8645 -1.1946,0.8615 0.44452,-1.4115 -1.17784,-0.8852 1.46269,-0.014 0.4662,-1.4085 z m 8.29615,0 0.4603,1.4065 1.46564,0.016 -1.17783,0.8782 0.4386,1.4174 -1.18769,-0.8645 -1.19362,0.8615 0.44354,-1.4115 -1.17686,-0.8852 1.46172,-0.014 0.4662,-1.4085 z m 8.32572,0 0.45931,1.4065 1.46565,0.016 -1.17784,0.8782 0.43959,1.4174 -1.1877,-0.8645 -1.1946,0.8615 0.44454,-1.4115 -1.17786,-0.8852 1.46271,-0.014 0.4662,-1.4085 z m 8.29616,0 0.46029,1.4065 1.46564,0.016 -1.17784,0.8782 0.4386,1.4174 -1.18768,-0.8645 -1.19362,0.8615 0.44354,-1.4115 -1.17686,-0.8852 1.46171,-0.014 0.46622,-1.4085 z m -37.39526,3.5159 0.45931,1.4074 1.46565,0.014 -1.17785,0.8781 0.43959,1.4174 -1.18769,-0.8645 -1.1946,0.8615 0.44452,-1.4115 -1.17784,-0.885 1.4617,-0.014 0.46721,-1.4086 z m 8.29614,0 0.4603,1.4074 1.46565,0.014 -1.17784,0.8781 0.4386,1.4174 -1.1877,-0.8645 -1.1936,0.8615 0.44353,-1.4115 -1.17685,-0.885 1.4617,-0.014 0.46621,-1.4086 z m 8.31094,0 0.46029,1.4074 1.46565,0.014 -1.17785,0.8781 0.43862,1.4174 -1.1877,-0.8645 -1.19361,0.8615 0.44353,-1.4115 -1.17784,-0.885 1.4627,-0.014 0.46621,-1.4086 z m 8.29713,0 0.45932,1.4074 1.46564,0.014 -1.17784,0.8781 0.43959,1.4174 -1.18769,-0.8645 -1.19461,0.8615 0.44354,-1.4115 -1.17686,-0.885 1.46172,-0.014 0.46719,-1.4086 z m 8.32473,0 0.4603,1.4074 1.46564,0.014 -1.17784,0.8781 0.43863,1.4174 -1.18771,-0.8645 -1.19361,0.8615 0.44352,-1.4115 -1.17783,-0.885 1.46269,-0.014 0.46621,-1.4086 z m -37.35879,3.5492 0.45932,1.4066 1.46563,0.016 -1.17782,0.8781 0.43959,1.4174 -1.1877,-0.8645 -1.19461,0.8615 0.44354,-1.4115 -1.17686,-0.885 1.46171,-0.014 0.4672,-1.4085 z m 8.29615,0 0.45931,1.4066 1.46664,0.016 -1.17883,0.8781 0.43959,1.4174 -1.18769,-0.8645 -1.1946,0.8615 0.44453,-1.4115 -1.17785,-0.885 1.4627,-0.014 0.4662,-1.4085 z m 8.31093,0 0.45931,1.4066 1.46565,0.016 -1.17784,0.8781 0.4396,1.4174 -1.18769,-0.8645 -1.1946,0.8615 0.44452,-1.4115 -1.17784,-0.885 1.46269,-0.014 0.4662,-1.4085 z m 8.29615,0 0.4603,1.4066 1.46564,0.016 -1.17783,0.8781 0.4386,1.4174 -1.18769,-0.8645 -1.19362,0.8615 0.44354,-1.4115 -1.17686,-0.885 1.46172,-0.014 0.4662,-1.4085 z m 8.32572,0 0.45931,1.4066 1.46565,0.016 -1.17784,0.8781 0.43959,1.4174 -1.1877,-0.8645 -1.1946,0.8615 0.44454,-1.4115 -1.17786,-0.885 1.46271,-0.014 0.4662,-1.4085 z m 8.29616,0 0.46029,1.4066 1.46564,0.016 -1.17784,0.8781 0.4386,1.4174 -1.18768,-0.8645 -1.19362,0.8615 0.44354,-1.4115 -1.17686,-0.885 1.46171,-0.014 0.46622,-1.4085 z m -37.39526,3.5159 0.45931,1.4074 1.46565,0.014 -1.17785,0.8782 0.43959,1.4175 -1.18769,-0.8646 -1.1946,0.8614 0.44452,-1.4113 -1.17784,-0.8852 1.4617,-0.014 0.46721,-1.4085 z m 8.29614,0 0.4603,1.4074 1.46565,0.014 -1.17784,0.8782 0.4386,1.4175 -1.1877,-0.8646 -1.1936,0.8614 0.44353,-1.4113 -1.17685,-0.8852 1.4617,-0.014 0.46621,-1.4085 z m 8.31094,0 0.46029,1.4074 1.46565,0.014 -1.17785,0.8782 0.43862,1.4175 -1.1877,-0.8646 -1.19361,0.8614 0.44353,-1.4113 -1.17784,-0.8852 1.4627,-0.014 0.46621,-1.4085 z m 8.29713,0 0.45932,1.4074 1.46564,0.014 -1.17784,0.8782 0.43959,1.4175 -1.18769,-0.8646 -1.19461,0.8614 0.44354,-1.4113 -1.17686,-0.8852 1.46172,-0.014 0.46719,-1.4085 z m 8.32473,0 0.4603,1.4074 1.46564,0.014 -1.17784,0.8782 0.43863,1.4175 -1.18771,-0.8646 -1.19361,0.8614 0.44352,-1.4113 -1.17783,-0.8852 1.46269,-0.014 0.46621,-1.4085 z m -37.35879,3.5482 0.45932,1.4066 1.46563,0.016 -1.17782,0.8774 0.43959,1.4173 -1.1877,-0.8646 -1.19461,0.8615 0.44354,-1.4114 -1.17686,-0.8851 1.46171,-0.014 0.4672,-1.4085 z m 8.29615,0 0.45931,1.4066 1.46664,0.016 -1.17883,0.8774 0.43959,1.4173 -1.18769,-0.8646 -1.1946,0.8615 0.44453,-1.4114 -1.17785,-0.8851 1.4627,-0.014 0.4662,-1.4085 z m 8.31093,0 0.45931,1.4066 1.46565,0.016 -1.17784,0.8774 0.4396,1.4173 -1.18769,-0.8646 -1.1946,0.8615 0.44452,-1.4114 -1.17784,-0.8851 1.46269,-0.014 0.4662,-1.4085 z m 8.29615,0 0.4603,1.4066 1.46564,0.016 -1.17783,0.8774 0.4386,1.4173 -1.18769,-0.8646 -1.19362,0.8615 0.44354,-1.4114 -1.17686,-0.8851 1.46172,-0.014 0.4662,-1.4085 z m 8.32572,0 0.45931,1.4066 1.46565,0.016 -1.17784,0.8774 0.43959,1.4173 -1.1877,-0.8646 -1.1946,0.8615 0.44454,-1.4114 -1.17786,-0.8851 1.46271,-0.014 0.4662,-1.4085 z m 8.29616,0 0.46029,1.4066 1.46564,0.016 -1.17784,0.8774 0.4386,1.4173 -1.18768,-0.8646 -1.19362,0.8615 0.44354,-1.4114 -1.17686,-0.8851 1.46171,-0.014 0.46622,-1.4085 z m -37.39526,3.5159 0.45931,1.4064 1.46565,0.016 -1.17785,0.8772 0.43959,1.4174 -1.18769,-0.8645 -1.1946,0.8615 0.44452,-1.4115 -1.17784,-0.885 1.4617,-0.014 0.46721,-1.4085 z m 8.29614,0 0.4603,1.4064 1.46565,0.016 -1.17784,0.8772 0.4386,1.4174 -1.1877,-0.8645 -1.1936,0.8615 0.44353,-1.4115 -1.17685,-0.885 1.4617,-0.014 0.46621,-1.4085 z m 8.31094,0 0.46029,1.4064 1.46565,0.016 -1.17785,0.8772 0.43862,1.4174 -1.1877,-0.8645 -1.19361,0.8615 0.44353,-1.4115 -1.17784,-0.885 1.4627,-0.014 0.46621,-1.4085 z m 8.29713,0 0.45932,1.4064 1.46564,0.016 -1.17784,0.8772 0.43959,1.4174 -1.18769,-0.8645 -1.19461,0.8615 0.44354,-1.4115 -1.17686,-0.885 1.46172,-0.014 0.46719,-1.4085 z m 8.32473,0 0.4603,1.4064 1.46564,0.016 -1.17784,0.8772 0.43863,1.4174 -1.18771,-0.8645 -1.19361,0.8615 0.44352,-1.4115 -1.17783,-0.885 1.46269,-0.014 0.46621,-1.4085 z m -37.37258,3.5493 0.45931,1.4064 1.46565,0.016 -1.17785,0.8773 0.43959,1.4173 -1.18769,-0.8635 -1.1946,0.8616 0.44354,-1.4126 -1.17686,-0.8851 1.4617,-0.014 0.46721,-1.4085 z m 8.30994,0 0.45931,1.4064 1.46664,0.016 -1.17883,0.8773 0.43959,1.4173 -1.18769,-0.8635 -1.1946,0.8616 0.44453,-1.4126 -1.17785,-0.8851 1.4627,-0.014 0.4662,-1.4085 z m 8.31093,0 0.45931,1.4064 1.46565,0.016 -1.17784,0.8773 0.4396,1.4173 -1.18769,-0.8635 -1.1946,0.8616 0.44452,-1.4126 -1.17784,-0.8851 1.46269,-0.014 0.4662,-1.4085 z m 8.29615,0 0.4603,1.4064 1.46564,0.016 -1.17783,0.8773 0.4386,1.4173 -1.18769,-0.8635 -1.19362,0.8616 0.44354,-1.4126 -1.17686,-0.8851 1.46172,-0.014 0.4662,-1.4085 z m 8.32572,0 0.45931,1.4064 1.46565,0.016 -1.17784,0.8773 0.43959,1.4173 -1.1877,-0.8635 -1.1946,0.8616 0.44454,-1.4126 -1.17786,-0.8851 1.46271,-0.014 0.4662,-1.4085 z m 8.29616,0 0.46029,1.4064 1.46564,0.016 -1.17784,0.8773 0.4386,1.4173 -1.18768,-0.8635 -1.19362,0.8616 0.44354,-1.4126 -1.17686,-0.8851 1.46171,-0.014 0.46622,-1.4085 z m -45.70029,10.4418 0,5.0466 124.64825,0 0,-5.0466 -124.64825,0 z m 0,10.093 0,5.0465 124.64825,0 0,-5.0465 -124.64825,0 z m 0,10.093 0,5.0464 124.64825,0 0,-5.0464 -124.64825,0 z" style="opacity:1;fill:#000000;fill-opacity:1;stroke:none;stroke-width:5;stroke-linecap:butt;stroke-linejoin:miter;stroke-miterlimit:4;stroke-dasharray:none;stroke-opacity:1" clip-path="url(#a)" transform="matrix(0.99427002,0,0,0.99427002,679.96927,-875.3483)"/><path style="color:#000000;font-style:normal;font-variant:normal;font-weight:normal;font-stretch:normal;font-size:medium;line-height:normal;font-family:sans-serif;text-indent:0;text-align:start;text-decoration:none;text-decoration-line:none;text-decoration-style:solid;text-decoration-color:#000000;letter-spacing:normal;word-spacing:normal;text-transform:none;direction:ltr;block-progression:tb;writing-mode:lr-tb;baseline-shift:baseline;text-anchor:start;white-space:normal;clip-rule:nonzero;display:inline;overflow:visible;visibility:visible;opacity:1;isolation:auto;mix-blend-mode:normal;color-interpolation:sRGB;color-interpolation-filters:linearRGB;solid-color:#000000;solid-opacity:1;fill:#000000;fill-opacity:1;fill-rule:nonzero;stroke:none;stroke-width:0.5;stroke-linecap:butt;stroke-linejoin:miter;stroke-miterlimit:4;stroke-dasharray:none;stroke-dashoffset:0;stroke-opacity:1;color-rendering:auto;image-rendering:auto;shape-rendering:auto;text-rendering:auto;enable-background:accumulate" d="m 13.435348,973.33057 -0.285465,0.20979 -0.135936,0.0994 0,-0.0547 -0.157294,0.17091 -0.106804,0.0775 -0.02327,0.0616 -0.264108,0.28545 -0.662194,0.0547 0.133988,0.74182 0.176722,0.26408 -0.135937,-0.0696 -0.306822,-0.0646 -0.382565,-0.18056 -0.266047,-0.16505 -0.223323,-0.21168 -0.299056,-0.36898 -0.6971526,-0.16703 -0.3398415,1.44288 0.1844868,0.33785 c 0.00199,0.01 0.00298,0.0219 0.00398,0.0268 0.00497,0.0169 0.00696,0.0288 0.00994,0.0408 l 0,0.6078 -0.073775,0.32632 0.1437019,0.69708 -0.1339879,0.0199 -0.034998,0.89325 -0.1281614,0.0159 -0.083519,0.73993 0.1106921,0.14368 -0.283526,0.81759 -0.3068218,0.97478 -0.314597,0.63892 -0.4893598,1.40211 -0.6136535,1.31075 -0.7767735,1.23319 -0.2388634,0.36699 -0.08153,0.92238 -0.1592324,0.74571 0.2291494,0.30295 0.03301,-0.0775 -0.1747728,0.53601 -0.019388,0.71846 -0.4427683,1.02728 -0.3184746,0.27581 -0.015511,0.0567 -0.1611811,0.0756 -0.2019661,0.58254 -0.1223449,0.49912 0.334015,0.52239 0.1437019,0.37086 0.087396,0.27969 -0.021377,0.48541 -0.1689463,0.2933 -0.069897,0.62918 -0.1204061,0.47377 0.2369146,0.52627 0.2679856,0.45249 0.2019661,0.44086 0.09714,0.30872 -0.015511,0.15341 -0.042754,0.0696 0,0.46025 0.5223795,0.59428 -0.00795,0.0408 -0.058264,0.20393 -0.08153,0.24657 0.021377,0.98264 0.2660467,0.47387 0.2912913,0.39223 0.1650588,0.031 -0.023266,0.076 -0.00994,0.01 -0.2893525,0 -0.1553547,0.7594 0.075763,0.4486 0.3281886,0.4505 0.1417631,0.4699 0.1475894,0.4875 0.1437019,0.3437 0.3417803,0.6 0.1087433,0.1942 0.06413,0.3961 0.1126309,0.068 -0.046631,0.1127 -0.1805992,0.7359 -0.093163,0.3845 0.4621865,0.5322 0.5029614,0.057 0.3747901,0.1516 0.00597,0 -0.1165185,0.062 0.025254,0.029 -0.1767116,0 -0.00597,0 -0.8874655,0.035 0.2951689,0.6623 0.1534159,0.3359 0.7049275,0.027 0.011633,0.012 0.7243456,0.043 0.3476065,-0.266 0.102927,0.2078 0.535971,0.3009 0.316536,0.053 -0.122345,0.057 0.07964,0.2272 -0.06015,-0.027 0,0.1826 -0.355372,0.066 0,0.5593 0.141763,0.1903 -0.258282,-0.061 -0.06403,0.1302 0.03888,0.07 0,0.1301 -0.04852,0.019 0,0.4913 c 0,0.024 -8.95e-4,0.051 0.008,0.099 0.006,0.032 0.02376,0.064 0.04077,0.095 0.008,0.01 0.02217,0.071 0.0175,0.059 l 0,0 0.002,0 c 0.0099,0.022 0.01134,0.024 0.01939,0.041 l 0,0.072 0.357321,0.3437 0.8797,-0.1534 -0.409748,-0.6622 -0.157304,-0.2836 0.431116,0.1554 0.248567,-0.6505 -0.184487,-0.3457 0.01939,0 0.0099,0 0.110682,0.01 0.201966,0.3321 0.351495,0.3903 0.06602,0.1903 0.227211,0.3748 0.02138,0.2194 0,0.9652 0.124284,0.4661 1.223419,0.1786 1.93999,0.2758 0.838915,0.062 -0.03301,0.1418 0.161181,0.3185 1.936103,1.1165 1.182644,0.7535 1.440916,0.8545 1.6953,1.0311 1.279735,0.2563 2.283719,0.2506 0,0.055 2.225455,0.2932 0.126222,-0.9884 1.248664,0.1981 1.347703,0.1786 0.124284,0.1417 0.165069,0.5128 0.47189,0.2329 0.09714,0.2467 0.730172,0.8331 0.184477,0.2272 0.450534,0.1922 0.09714,0.1845 0.100988,0.062 0.03102,0.1573 0.297118,0.6117 0,0.8001 0.281577,0.5982 0.823375,0.8757 0.502962,0.2078 0.01939,0.022 0,0.1359 0.596174,0.3535 0.182548,0.062 0.170885,0.1107 0.520441,0.198 0.427228,-0.4407 0.485482,-0.6913 0.09316,-0.371 0.122345,-0.1767 0.242741,-0.101 0.24468,-0.099 0.213609,0.1611 0.817558,0.076 0.551512,0.094 0.03689,0.031 0,0.072 0.357311,0.4311 0.502962,0.4563 0.01551,0.1224 0.182538,0.2019 0.06602,0.3553 0.499074,1.175 -0.02714,0.3282 0.520431,0.3262 0.312658,0.5962 0.415565,0.5437 0.295179,0.1185 -0.122345,0.4213 0.186426,0.2797 -0.104866,0.1029 0.16313,0.5864 0.299057,0.1846 0.102916,0.536 0.297118,0.5495 0.891353,0.4039 0.464116,0.1069 0.413636,0.3068 0.502961,0.1029 0.126223,-0.049 0.355372,0.074 0.695213,0.4835 0.574818,-0.371 0.124283,-0.1844 0.269925,-0.076 -0.04852,-0.4641 -0.05439,-0.5573 -0.254384,-0.7224 -0.07377,-0.5379 0.02525,-0.4311 0.170886,-0.5652 0.392269,-0.6 0.499084,-0.7069 0.483533,-0.299 0.167008,-0.1398 0.568991,-0.3127 0.561215,-0.2427 0.561226,-0.3496 0.300995,-0.233 0.535972,-0.5166 0.102926,-0.062 0.219436,-0.1573 0.328188,-0.2505 0.07377,-0.1554 0.817549,-0.3806 0.124283,-0.035 0,0.031 0.885527,-0.2893 0.664143,-0.029 0.970964,0.3417 0.765121,0.136 0.332076,-0.1321 0.192252,0.068 0.656367,0.2 0.06403,-0.167 0.520441,0.5321 1.025341,0.4428 0.63501,-0.2292 0.201966,0.2155 0.681622,-0.2679 0.240793,-0.3671 0.11263,-0.07 c 0.03162,0.01 0.103643,0.017 0.190314,0.025 0.03341,0.01 0.06711,0.016 0.09127,0.019 0.01104,0 0.008,7e-4 0.0175,0 l 0.248567,0.1242 0.151467,0.2253 0.347607,0 0.314587,0.2738 0.532094,-0.7379 0,-0.6467 -0.367025,0 -0.310709,-0.2563 -0.314597,-0.043 0.380626,-0.672 -0.209731,-0.3107 -0.04464,-0.3883 0.52238,-0.1554 0.06015,0.01 0.170895,0.097 0.572869,0 -0.002,0 1.345754,0.1554 0.510737,-0.2389 0.471891,-0.087 0.565103,-0.2019 0.551502,-0.049 0.363147,-0.057 0.629184,0.1495 0.706866,0.3476 0.168946,0.1535 0.258272,0.101 0.02525,0.031 0.07377,0.6544 0.704928,-0.2854 0.405861,0 0.473829,-0.2641 0.279639,-0.2738 0.405871,0.024 0.203894,-0.4971 0.08541,0 0.227211,0.1165 0.310709,0.1087 0.236915,0.369 0.215558,0.077 0.102917,0.3147 0.376738,0.1825 0.170886,0.2777 0.330127,0.1126 0.337903,0.086 0.07576,0.1845 0.252455,0.3088 0,0.7553 -0.153416,0.4875 0.04464,0.3806 0.141763,0.5379 0.194191,0.4466 -0.139814,0.1632 0.570929,0.6097 0.221375,0.2661 0.279638,0.5205 0.271873,0.3708 0.264098,0.6408 0.602001,0.1185 0.02724,-0.037 0.04077,0.064 0.06602,0.3651 0.669969,0.9671 0.262159,-0.4156 0.05627,0 0.201957,0.132 0.252455,0.3884 0.05627,0.2525 0.04663,0.4137 0.19419,0.1689 -0.462176,0.3243 -0.29324,0.2058 -0.102917,0.1671 -0.854456,0.2329 0.753478,0.7438 0.446636,-0.2369 0.382565,-0.134 0.47383,-0.1689 0.09515,0.085 0.516563,-0.4019 0.545676,-0.437 0.433054,-0.4602 0.26022,-0.703 0.126223,-0.2214 0.03689,-0.8254 -0.0699,0 0.05051,-0.466 -0.07377,-0.2039 -0.04852,-1.1554 -0.139815,-0.8409 -0.475778,-0.8836 -0.34178,-0.5709 -0.269924,-0.5729 -0.275751,-0.2777 -0.184487,-0.4777 0.227201,-0.2602 -0.314587,-0.5748 -0.427228,-0.3982 -0.436932,-0.5048 -0.343729,-0.5923 -0.502952,-0.9049 -0.351494,-0.9321 -0.194191,-0.639 -0.07765,-0.6621 0.203905,-0.9148 0.165069,-0.4931 -0.04077,-0.2234 0.34178,-0.6564 -0.02138,-0.053 0.06403,-0.039 0.666081,-0.7457 -0.02714,-0.091 0.367025,-0.3574 0.198079,-0.1009 0.252445,-0.3923 0.275761,-0.2796 0.151467,-0.2602 0.269924,-0.074 0.126233,-0.3146 0.223323,-0.1125 0.05826,-0.7807 0.201966,-0.4855 0.501013,-0.5127 0.335953,-0.082 0.704928,-0.077 0.100978,-0.4933 0.167008,-0.567 0.264098,-0.3768 0.557338,-0.468 0.427228,-0.2039 0.110692,-0.027 0.06801,0.029 0.4078,0 0.419462,-0.6699 0.213609,-0.3981 0.05051,0.01 0.240802,-0.2525 0.219436,-0.1941 0.491308,-0.2252 0.02724,-0.5963 -0.04852,-0.5379 -0.26022,-0.5282 0,-0.4486 -0.275751,0.096 0.05439,0.1263 -0.258271,-0.2584 -0.308771,-0.5709 -0.137875,-0.3767 0,-0.4117 -0.221384,0.055 -0.297118,-0.5069 0.238863,-0.2136 0.240803,-0.6719 -0.0524,-0.3884 0.02913,-0.3068 0.267985,-0.3535 0.157294,-0.65828 0.08939,-0.18443 0.01551,-0.30296 0.194191,0 -0.182538,-0.34571 0,-0.45438 -0.139814,0.0547 -0.08352,-0.2777 0.35926,-0.42724 0.08153,-0.50489 0.238853,-0.35535 0.330138,-0.71081 0.149528,-0.73019 -0.08352,-0.15143 -0.01939,-0.92238 -0.11457,-0.24469 0.151467,-0.0428 0.582583,-0.20005 0.308761,-0.11842 0.739886,-0.56126 0.403922,-0.30872 0.730162,-0.78458 -0.551512,-0.21745 0.167008,-0.0855 0.448585,-0.15341 0.34178,-0.27372 0.006,-0.0139 0.006,0 0.217497,-0.11653 0,0.40397 0.464125,-0.35346 0.17866,0.14764 0.34372,-0.16703 0.918536,-0.0288 0.561216,-0.20193 -0.355372,-0.79621 -0.04663,-0.01 0.0874,-0.0308 -0.08153,-0.58264 -0.126223,-0.38449 -0.287404,-0.3631 -0.343719,-0.15928 -0.440819,0.0328 -0.234976,0.23693 -0.297118,-0.34372 -0.170895,0 0.223323,-0.48938 -0.256333,-0.39999 0.21167,-1.17881 0.01362,-0.29898 0.203905,-0.18254 -0.07377,-0.24857 0.295179,-0.11076 0.714631,-0.4175 0.02138,-0.19617 0.168947,-0.0268 0.07188,-0.11653 0.0175,0.0268 0.732111,-0.38647 -0.02525,-0.10489 0.06403,0.01 0.0524,-0.32036 0.03102,0 c 0.01989,0 0.127078,-0.0149 0.205844,-0.0636 0.006,0 0.02913,-0.01 0.03301,-0.01 0,0 0,0 0,0 l 0.02714,-0.0139 0.02327,-0.0189 c 0.07119,-0.0587 0.104388,-0.14139 0.120396,-0.25056 0.003,7e-4 0.01939,0 0.01939,0 0,0 0.002,-0.01 0.002,-0.01 0,0 0,-0.01 0,-0.01 0,0 0.002,-0.0139 0.002,-0.0159 2.88e-4,0 -6e-5,0 0,-0.01 0,0 0.002,0 0.002,0 1.99e-4,0 -5.37e-4,-0.01 0,-0.0119 7.26e-4,-0.01 4.48e-4,0 0,0 0,0 0,0 0,0 l 0.01551,-0.0408 0.002,0 0,0.01 0.0099,-0.01 0.06602,0 0.57093,-0.6603 0.258282,-0.23693 0.271863,-0.0915 0.302944,-0.69132 0,-0.37673 -0.29323,-0.49326 -0.334015,-0.36897 -0.398096,0.0219 -0.0099,-0.25633 -0.201966,-0.48938 -0.55345,0 -0.850568,-2.8624 -0.347607,-0.17479 -0.642776,-0.26597 -0.372851,-0.0487 -0.132049,0.13204 -0.157303,0.1554 -0.242741,0.17867 0,-0.15928 -0.481595,-0.0607 -0.380627,0 -0.320413,0.65244 -0.291291,0.90687 -0.19614,0.54377 0.02138,0.57479 0.01362,0.0855 -0.035,0.1204 -0.118457,0.14169 0,0.86223 0.143712,0.18254 -0.06214,0.1748 -0.269935,0.49912 -0.07765,0.52428 -0.198079,0.0139 -0.153416,-0.15729 -0.13011,0.17668 -0.0099,0 0.004,0.01 -0.343719,0.46224 0,0.33984 -2.672101,0.70096 0,0.0249 -0.518502,0.14566 -0.382555,0.12429 -0.299057,-0.0199 -0.617541,0.14954 -0.376729,0.15143 -0.306832,0.23892 -0.238853,0.27959 -0.283526,0.39423 -0.300996,0.47775 -0.133997,0.27183 -0.02327,0.0288 -0.677734,0.65055 0.03689,0.5379 0.190313,0.28158 0.112631,0.0527 -0.0175,0.0308 0.07765,0.34958 0.01163,0.0169 -0.100978,0 -0.289352,0.35933 -0.157294,0.29122 -0.06602,0.0547 -0.446646,0.0408 -0.334015,0.14765 -0.09704,0.0607 -0.165069,-0.11454 -0.763181,0.0229 -0.367025,0.0587 -0.425279,0.1379 -0.469952,0.16117 -0.567042,0.35536 0.349545,1.12442 0.141763,0.0159 -0.196129,0.26021 -0.03888,0.12627 -0.09127,0.0835 -0.04275,0.0268 0,-0.0955 -0.967087,1.00789 0.0175,-0.0348 -1.380713,0.93213 -0.419463,0.25056 -0.363137,0.40198 -0.31071,0.30683 -0.203904,0.0527 -0.322363,0.0527 -0.506849,0.24469 -0.328178,-0.29908 -0.549573,0.0696 -0.143702,-0.0835 -0.07576,-0.0428 0.0699,-0.12628 0.281577,-0.24658 -0.02138,-0.503 0.242741,-0.0756 0.02327,-0.40974 0.04077,0.01 0.518502,-0.26606 -0.04275,-1.25259 -0.332067,-0.85835 -0.231098,-0.9534 -0.320413,-0.43112 -0.52238,-0.3651 -0.34178,0.24857 -0.09515,0.0447 0.09714,-0.0676 -0.04275,-1.31462 -0.141763,-0.20392 0.0524,-0.54566 -0.322363,-0.30683 -0.200017,-0.40586 -0.427228,0 -0.34178,-0.11265 -0.559277,-0.3476 0.09903,0.0139 0.03689,0.0139 0,0.0179 0.04852,0 0.06403,0.0249 0.0699,-0.0179 0.627245,0.0308 0.361199,-0.34949 0,-0.17091 0,-0.01 c 0,0 -9.94e-4,-0.0338 0,-0.0656 l 0,0 0,-0.01 c 0,-0.0229 -0.007,-0.13025 -0.06015,-0.21168 l 0.04076,0.13592 c 0,-0.0139 0.002,-0.0945 -0.04076,-0.17092 -0.0099,-0.0179 -0.03033,-0.0219 -0.04275,-0.0368 -2.88e-4,-2.9e-4 2.78e-4,0 0,0 -6e-5,-1e-4 -0.03679,-0.0527 -0.03689,-0.0527 -1.3e-4,-1e-4 -0.02307,-0.0229 -0.02327,-0.0229 -4.18e-4,-4e-4 -0.01491,-0.0109 -0.02714,-0.0199 l 0,-0.28933 -0.421401,0.0547 -0.209732,0.0249 -0.277699,0.0288 0,-0.70295 -0.621419,-0.20005 -0.203895,0.20393 -0.497135,0.13203 -0.0524,0.0139 0,-0.61366 -0.588409,-0.0656 -0.343719,0.1728 -0.368964,0.16117 -0.633072,0.0348 -0.450533,0.15143 -0.429167,0.38449 -0.03689,0.0239 -0.112631,0 -0.04663,0.0288 -0.264108,-0.21754 -0.289343,0.19418 -0.104866,0.01 -0.104865,-0.1048 -0.153416,-0.32632 -0.266047,-0.21357 -0.440809,-0.13402 -0.106815,0 0.13011,-0.28158 0.386453,-0.10291 0.174773,-0.50877 -0.135937,-0.13979 0.06015,-0.30882 -0.512666,0.0587 -0.534032,0.0606 -0.535971,0.30683 -0.279639,0.28158 -0.08541,0.12041 -0.182538,0.0835 -0.291291,0.44473 -0.002,0.0139 -0.297108,0.14566 -0.190313,0.1573 -0.602001,0.0974 -0.264098,0.25831 0,0.0527 -0.128171,0.0835 -0.168947,0.0507 -0.108753,-0.14566 0.0524,-0.0547 -0.40781,-0.31647 -0.05628,-0.31469 -0.431105,0.17092 -0.24469,0.0935 -0.116508,0.0795 0.242741,-0.42137 0.200017,-0.30097 0.217496,-0.18642 0.415576,-0.17867 0.908822,-0.40586 0.508788,-0.24271 0.256333,0.18832 0.421401,-0.18832 0.382555,-0.23116 0.80008,-0.80974 -0.318475,-0.32234 -0.05439,-0.17867 -0.234976,0.0676 -0.06403,0.0199 -0.289352,0.0716 -0.541798,0.40199 -0.143701,0.0527 -0.846681,0.0716 -0.11457,-0.20581 -1.046708,0.0388 -0.122345,-0.27382 -0.654428,0.12816 -0.357311,0.36122 -0.02525,0.0139 -0.08541,0 0,-0.26209 -0.469952,-0.0606 -0.08352,-0.48938 -0.642786,0.21556 -0.413626,-0.19418 -0.448585,-0.30485 -0.275761,0 -0.182538,-0.13402 -0.48937,0.14755 -0.04464,0.0447 0,-0.0408 -0.683561,-0.0348 -0.03102,-0.16117 -0.60394,0 -0.108753,-0.46412 -0.102917,-0.74183 -0.42335,-0.17867 -0.693265,-0.14566 0,0.16893 -0.06403,0.0179 -0.02714,0.73595 -2.59248,0 -2.858526,-0.0567 -1.80988,-0.0636 -2.578888,-0.12826 -2.206036,-0.16893 0,-0.0348 -3.336244,-0.30882 -2.846873,-0.35336 -2.850761,-0.40199 -3.14593,-0.52825 -1.790462,-0.33597 -3.229438,-0.69907 -0.03689,0 -0.984556,-0.19418 0,-0.0716 -0.291291,0 -1.578792,-0.35734 -2.23323,-0.56116 -1.959407,-0.56316 -0.836977,-0.19229 -0.92824,-0.26795 -0.157294,-0.0547 -0.159242,-0.53989 z m -0.215557,0.938 0.382565,0.13015 0.951546,0.27571 0.838915,0.19229 1.955531,0.56315 2.244873,0.56316 1.489466,0.33785 0,0.0159 1.433141,0.28357 0.03301,0 3.182838,0.68743 1.802114,0.33985 3.157583,0.53014 2.862404,0.40387 2.858526,0.35545 2.891546,0.26597 0,0.0428 2.672101,0.20581 2.588592,0.12627 1.817655,0.0656 2.866291,0.0567 0.004,0 3.074074,0 0.03102,-0.82525 0.126232,0.0268 0.116509,0.0507 0.06801,0.4855 0.151477,0.65244 0.219435,0.21754 0.42334,0 0.02714,0.14179 0.598113,0.0288 0,0.21745 0.683561,0 0.0524,-0.18444 0.06801,-0.0696 0.133998,-0.0388 0.112631,0.0835 0.285464,0 0.355372,0.24271 0.543747,0.25244 0.343719,0.0676 0.03301,-0.0676 0.02714,0.15729 0.386453,0.19617 0.02526,-0.0249 0,0.13591 0.351484,0.13592 0.353433,0 0.201966,-0.10678 0.302934,-0.30485 0.118458,-0.0239 0.01939,0.0447 0,0.51275 0.4078,-0.34959 0.747651,-0.0288 0.219436,0.38836 -0.803957,0.35933 -0.479666,0.20581 -0.330127,0.28158 -0.246619,0.37086 -0.203905,0.35545 -0.16313,0.0756 -0.427218,0.48361 -0.118457,0.0179 -0.860282,0.66805 0.704927,0 0.250506,0.0388 0.318475,-0.0676 0.747651,-0.33208 0.281578,-0.1903 0.13011,-0.0507 0.03102,0.0229 -0.02724,0.0268 -0.155355,0.24857 -0.768998,0.4331 0.499074,0 0.512665,0 0.07377,0 0.02724,-0.0428 0.02714,0 0.194191,0.0587 0.22721,0.4175 0.157294,-0.3825 0.153416,-0.1224 0.262159,-0.0775 0.413636,-0.27193 0,-0.11066 0,0 0.580634,-0.0954 0.250506,-0.20393 0.458299,-0.2253 0.035,-0.16117 0.16312,-0.24658 0.172834,-0.0795 0.137876,-0.19617 0.203905,-0.20393 0.388381,-0.22331 0.339842,-0.0368 -0.287404,0.0776 -0.143702,0.30882 -0.238863,0.0875 -0.05628,0.28158 -0.186426,0.25046 0.357321,0.33984 0.186426,-0.15531 0.08352,0.0855 0.252455,0 0.277689,0.0835 0.102927,0.0835 0.139814,0.29709 0.324311,0.33019 0.468003,-0.0328 0.09127,-0.0616 0.104856,0.0855 0.234976,0.0676 0.141763,-0.0875 0.112631,0 0.194191,-0.12041 0.386453,-0.34571 0.289342,-0.0994 0.656377,-0.0348 0.462177,-0.20194 0.223323,-0.11265 0,0.56316 0.446646,0.12816 0.225262,-0.0527 0.633071,-0.17091 0.0699,-0.0696 0,0.6409 0.264108,0.25633 -0.155354,-0.0219 -0.209732,0.0656 -0.2272,-0.0199 -0.279639,0.12816 -0.04852,-0.0368 -0.03888,0.0547 -0.0874,0 -0.572869,-0.13005 -0.578695,0.0268 -0.192252,0.2603 -0.638898,0.0597 -0.304883,0.0994 -0.120396,0.33597 -0.03301,0.0288 -0.157303,-0.17668 -0.47383,0.2602 -0.233027,-0.33795 -0.318484,0.72244 -0.09515,0.39999 -0.227201,0.51463 -0.01163,-0.0119 -0.223323,0.46999 -0.176721,0.16118 -0.213609,0.4854 -0.460238,0.84095 0.953485,-0.53213 0.08153,-0.2427 0.178661,-0.16515 0.275751,-0.41362 0.269934,-0.41163 -0.262159,0.61944 -0.271873,0.57478 -0.0524,0.33408 -0.07576,0.30096 0.08352,0.13791 -0.0099,0.20193 -0.180599,0.23107 -0.06602,0.2253 0.0699,0.37862 0.05627,0.29719 -0.132049,0.23495 -0.08352,0.30096 -0.106805,0.3476 0.126223,0.26418 0.06025,0.60392 0.155354,0.43688 -0.07964,0.62539 0.0874,0 0.01163,0.33398 0.16312,0.29321 0.149529,0.16893 0.118467,0.34759 0.112631,0.35734 0.440819,0.13403 0.141754,0.0935 0.200027,0 0.24468,-0.23107 0.234976,-0.1379 0.03301,0 0.466064,-0.45051 0.03102,-0.29708 0.236914,-0.50877 0.09714,-0.61178 0.08352,-0.49325 -0.153406,-0.51454 -0.289352,-0.65642 -0.330128,-0.56514 0.02714,-0.22132 0.02724,-0.0696 0.09515,-0.29132 -0.06214,-0.13592 -0.05439,-0.41948 0.151477,-0.38449 0.116509,-0.65254 -0.07964,-0.24856 0,0 0.198078,-0.0408 0.09903,-0.38448 -0.06801,-0.0875 0.002,-0.0119 0.132049,-0.14556 0.300995,-0.12428 0.09515,-0.4176 0.05627,-0.0249 0.334016,0.33407 0.07964,-0.55928 0.09316,-0.11454 0.09316,-0.0119 0.0524,-0.47963 0.05826,0.0209 -0.01939,-0.21357 0.22721,-0.18454 0.161181,-0.10102 -0.205853,0.19428 0.543746,0 0.182538,0 0.275761,0 0.468003,0.29122 0.473829,0.15541 0.198079,0 0.102927,0.2078 0.170885,0.16505 -0.314597,-0.0656 0.201966,0.55152 0.139824,0.0915 0.126223,0.17857 0.02913,0.89723 -0.217487,0.15143 -0.07765,0.30107 -0.06403,0.27958 -0.289353,0.11265 -0.04275,0.0915 c -0.03709,0.0815 -0.04077,0.17499 -0.04077,0.24857 0,0.01 -0.01939,0.0587 -0.01939,0.17091 l 0,0.18444 0.09127,0.0756 c 0.02625,0.0219 0.03778,0.0298 0.05051,0.0408 l 0.008,0.01 0.0099,0.01 c 0.0696,0.0507 0.135937,0.0875 0.135937,0.0875 l 0.0099,0.01 0.201956,0.0915 0.186426,-0.11454 0.291291,-0.40009 0.176712,-0.46989 0.347607,-0.16117 0.09515,-0.0676 0.165059,0.11454 0.21167,0.28555 0.215558,0.88739 0.312648,0.80784 0.03102,0.85448 -0.08541,0.0427 -0.29324,-0.0567 -0.155355,0.31269 -0.0175,0.2952 -0.05827,0.0199 -0.213609,0.21556 0.01939,0.49912 -0.168947,0.14755 -0.233037,0.42137 0,0.27382 0.384504,0.22143 0.289353,0.16694 0.487421,-0.0617 0.337903,0.30882 0.281577,-0.0408 0.532083,-0.25643 0.271874,-0.0447 0.355372,-0.0915 0.419462,-0.40974 0.322363,-0.35923 0.365086,-0.21944 0.337892,-0.22719 0.409749,-0.0795 0,-0.12627 0.357311,-0.26209 0.135936,-0.0527 0.454412,-0.47377 0.326249,-0.25831 0.141763,-0.12816 0.08929,-0.14954 0.159242,-0.10489 0.223323,-0.20194 0.0524,-0.1728 0.184487,-0.24668 0.141753,-0.12428 -0.0175,-0.18444 -0.161181,-0.39035 -0.167008,-0.0179 -0.137875,-0.44851 0.194191,-0.12041 0.411687,-0.14178 0.384504,-0.12429 0.297118,-0.0487 0.568981,-0.0159 0.192252,0.13213 0.231098,0 0.221374,-0.14178 0.225262,-0.0994 0.52239,-0.0487 0.256332,-0.21555 0.1806,-0.33398 0.110692,-0.1379 0.182538,0 0.283526,-0.16893 0,-0.32622 -0.149529,-0.21944 -0.0175,-0.0795 0.258272,-0.48938 -0.42334,0 -0.118458,-0.0547 -0.03888,-0.0607 -0.01362,-0.17092 0.535971,-0.51463 0.07576,-0.0974 0.14759,-0.2952 0.277699,-0.44275 0.26216,-0.3631 0.19419,-0.22729 0.211671,-0.16505 0.277699,-0.11067 0.508788,-0.12428 0.320414,0.0209 0.462186,-0.15153 0.871925,-0.24469 0,-0.0169 2.672101,-0.70106 0,-0.56126 0.03301,-0.0467 0.002,0 0.45636,0.35923 0,-0.44076 0.182538,0 -0.03102,-0.0587 0.170895,0 0,-0.32821 0.07576,-0.51851 0.248568,-0.45637 0.165069,-0.46989 -0.205854,-0.26219 0,-0.51075 0.0699,-0.0835 0.09316,-0.32433 -0.02525,-0.16505 -0.01551,-0.44862 0.167008,-0.46412 0.281577,-0.87973 0.167007,-0.34173 0.04077,0 0.01551,0 0,0.0368 0.161181,0.29908 0.553451,0.13204 0,-0.28933 0.351494,-0.25821 0.139814,-0.14179 0.06801,0.01 0.565104,0.23116 0.137875,0.0716 0.895231,3.01194 0.592296,0 0.04077,0.0994 0.02138,0.50887 0.172834,0.15142 0.09316,0 0.008,0 0.415575,0 0.122335,0.13403 0.198078,0.33209 0,0.13591 -0.172834,0.39612 -0.16312,0.0547 -0.357311,0.32821 -0.440819,0.50876 -0.400045,0 0.118458,0.23495 -0.06403,0.0607 0,0.12816 -0.192252,-0.20591 -0.231089,0.32244 -0.03102,0.18444 -0.29323,-0.0328 0.08153,0.3457 -0.421401,-0.68356 0,0.84662 -0.116519,0.18842 -0.320413,0.0527 -0.03301,0.32235 -0.460238,0.26994 -0.04663,0.0179 -0.19614,-0.17668 -0.421391,0.49713 0.09127,0.31071 -0.124284,0.11066 -0.02327,0.47775 -0.104856,0.58055 -0.135936,0.41949 -0.04852,0.0507 0,0.20781 0.264098,0.41361 -0.21167,0.46602 -0.05439,0.2078 0.29323,0.40009 0.17866,-0.12627 0.07964,0 0.1806,0.2078 0.403922,0.63504 0.436942,0.0607 0.273812,-0.11652 0.17866,-0.17867 0.0175,0.12627 -0.328179,0.11653 -0.405871,0.20581 -0.372851,0.43887 0,-0.2078 -0.417514,0.20591 0.06403,0.27571 -0.002,0 -0.0699,-0.27382 -0.361199,0.19418 -0.172834,-0.0388 -0.147589,0.24081 -0.203905,0.16704 -0.398096,0.13591 -0.592287,0.29908 -0.004,0 -0.006,0.01 -0.03689,0.0199 -0.508778,0.11464 -0.209731,0.11454 -0.106804,-0.0895 -0.264108,0.29331 -0.334015,0.3126 -0.475769,0.32821 0.613654,0.24658 0.273812,0.0328 0.823375,-0.41173 0.304883,-0.28933 0.07189,-0.0855 0.165058,0.0656 -0.203905,0.21944 -0.370902,0.28356 -0.679683,0.51852 -0.236915,0.0895 -0.561215,0.19418 -0.702979,0.20005 0.320413,0.67779 0.01939,0.93989 0.05439,0.0994 -0.09903,0.49127 -0.291291,0.62341 -0.27769,0.41362 -0.07576,0.47575 -0.14759,0.1748 -0.401983,0 0.382565,1.27197 -0.01939,0.39611 -0.291292,0.60203 0.112631,0 -0.03689,0.15147 -0.287404,0.3826 -0.05051,0.503 0.04464,0.3242 -0.157303,0.4389 -0.04852,0.043 -0.07964,-0.2583 0.04275,-0.5049 0.151467,-0.4077 0.07765,-0.3244 0,-0.29318 -0.252455,-0.0994 -0.116518,-0.1554 -0.0175,-0.0616 -0.0099,0 0.01551,0.0467 -0.02327,-0.0308 -0.376739,0.19816 -0.167008,-0.37285 -0.180599,-0.0249 -0.53792,-0.70494 0,0.83698 0.128171,0.18255 -0.02327,0.0507 -0.798131,-0.20979 0.836977,0.80399 0.297107,0.037 0.02724,0.043 -0.04464,0.4874 0.126222,0.101 -0.05051,0.1981 0.07189,0.049 -0.706856,0 0.726274,0.4952 0.01551,0.1301 0.176711,0.1787 0.02327,0.1281 0.106805,-0.059 0.188374,0.4583 0.126223,-0.037 0.002,0.01 0.01163,-0.01 0.11458,-0.035 0.4078,0.6933 0.01163,0 0.135936,0.371 0.361199,0.6661 0.238863,0.2427 0.09127,0.2155 0.112631,-0.039 0.21167,0.4312 0.03689,0.4136 -0.0099,0.2582 -0.283526,0.1301 -0.291291,0.2564 -0.06602,0.07 -0.143712,-0.029 -0.380616,0.7108 -0.264098,0.4214 -0.03301,0 -0.124284,-0.051 -0.318474,0.074 -0.534033,0.2544 -0.654428,0.5515 -0.349546,0.4952 -0.196139,0.666 -0.03301,0.1593 -0.376739,0.041 -0.5049,0.1243 -0.666082,0.6816 -0.269934,0.6467 -0.04275,0.5806 -0.139814,0.07 -0.104866,0.2621 -0.22721,0.062 -0.223313,0.3806 -0.266047,0.2719 -0.209731,0.3224 -0.145641,0.074 -0.322362,0.3145 -0.401984,0 0.122345,0.4195 -0.433054,0.4855 -0.351494,0.2156 0.0874,0.2272 -0.318485,0.6117 0.04852,0.264 -0.132049,0.3962 -0.22915,1.0234 0.09515,0.7885 0.209731,0.6991 0.372852,0.9806 0.522379,0.9419 0.368964,0.6349 0.483543,0.5613 0.388392,0.3612 0.110692,0.2 -0.06602,0.076 -0.116518,0.1846 0.316536,0.8194 0.287403,0.2914 0.242741,0.5184 0.349556,0.5806 0.433044,0.8021 0.120406,0.7301 0.05051,1.2002 0.06025,0.1669 -0.02525,0.2506 -0.252445,0.1398 0.03689,0.2428 -0.267986,0.7282 0.510727,-0.3437 -0.004,0.072 -0.0874,0.1516 -0.03888,0.1049 -0.576757,0.2834 -0.403922,0.022 -0.157293,0.1767 -0.165069,0.068 -0.06214,-0.024 -0.06015,-0.053 -0.02714,-0.2504 -0.08153,-0.3651 -0.359259,-0.5515 -0.394209,-0.2583 -0.483543,-0.037 -0.02138,0.033 -0.180599,-0.2602 -0.06413,-0.3515 -0.275751,-0.4427 -0.29323,-0.1942 -0.1806,0.2427 -0.035,-0.01 -0.184487,-0.4524 -0.287403,-0.3903 -0.285465,-0.534 -0.264098,-0.3166 -0.2777,-0.2952 0.0175,-0.02 -0.234976,-0.2777 0.19613,0.064 -0.2272,-0.5262 -0.124284,-0.4641 -0.02714,-0.2409 0.143702,-0.4602 0,-1.0079 -0.318485,-0.3884 -0.141753,-0.3476 -0.561225,-0.1417 -0.141763,-0.049 -0.153406,-0.2485 -0.318475,-0.1554 -0.112641,-0.3456 -0.283516,-0.1029 -0.238863,-0.369 -0.44082,-0.1534 -0.302934,-0.1573 -0.295179,0 -0.510727,0.1068 0,0.3339 0.02714,0.035 -0.225262,-0.014 -0.392269,0.3806 -0.302944,0.1689 -0.372851,0 -0.186426,0.076 -0.0175,-0.1514 -0.201956,-0.2428 -0.293231,-0.1146 -0.155354,-0.1398 -0.817559,-0.4019 -0.776773,-0.1846 -0.444697,0.068 -0.598123,0.051 -0.588399,0.2117 -0.495197,0.091 -0.234975,0.1107 -0.394209,-0.7885 -0.384504,-0.1418 -0.184486,0.5535 -0.08153,0.1767 0.01939,0 -0.481595,0 -0.02724,0.1477 -0.37479,0 -0.132049,-0.076 -0.258281,-0.043 -0.646664,0.1903 -0.229149,-0.1067 -0.29323,0.4855 -0.004,0 -0.167008,0.1184 -0.207782,0.1845 -0.233028,0.2621 0.159233,0.2952 0.469951,0.1029 0.08541,-0.3398 0.118458,-0.1321 0.01939,0.1651 0.104866,0.1573 -0.102927,0.1806 -0.13011,0 -0.04663,0.1922 -0.201966,-0.027 -0.188364,0.4427 0.419452,0.301 0.561226,0.076 0.339832,0.2796 0.04077,0 -0.112631,0.1554 -0.04464,-0.039 -0.266047,0 -0.07765,-0.1147 -0.44082,-0.2194 -0.03888,-0.01 c -0.03331,-0.01 -0.03321,0 -0.05439,-0.01 -0.02118,0 -0.04812,-0.01 -0.07765,-0.016 l -0.0175,0 -0.01939,0 c -0.07656,-0.01 -0.198079,-0.027 -0.198079,-0.027 l -0.01939,0 -0.01163,0 c -0.02128,-0.01 -0.02366,-0.02 -0.04663,-0.02 l -0.0699,0 -0.361199,0.2253 -0.205843,0.3146 -0.106805,-0.369 -0.297118,0 -0.143701,0.1204 -0.287404,0.07 -0.06214,0.1612 -0.0874,0.033 0.0524,0.057 -0.250507,0.091 -0.753477,-0.3263 -0.03888,-0.039 0.03102,-0.02 0.133998,-0.262 -0.264108,-0.272 -0.39227,-0.027 -0.02327,-0.1554 0,0 0.02526,-0.068 -0.08541,-0.031 -0.120406,-0.2039 -0.413626,-0.086 -0.679683,0.3806 0.487431,0.1748 -0.03301,-0.01 -0.35925,-0.1263 -0.372851,0.1476 -0.58647,-0.1049 -1.023392,-0.3592 -0.827273,0.037 -0.318474,0.1049 0,-0.01 -0.776774,0.2214 -1.013688,0.4738 -0.09903,0.2079 -0.227201,0.1728 -0.200027,0.1417 -0.132049,0.082 -0.557328,0.5379 -0.258282,0.2 -0.508788,0.3146 -0.549563,0.2388 -0.631132,0.3476 -0.178661,0.1477 -0.53791,0.3339 -0.561225,0.7963 -0.436932,0.666 -0.209732,0.6913 -0.03102,0.5379 0.0874,0.6371 0.252456,0.7127 0.04852,0.499 0.004,0.047 -0.04464,0.014 -0.167007,0.2525 -0.209722,0.1339 -0.50491,-0.3515 -0.596164,-0.1243 -0.128171,0.049 -0.252456,-0.053 -0.409748,-0.303 -0.516553,-0.1184 -0.693265,-0.3127 -0.180599,-0.336 -0.13011,-0.6758 -0.318485,-0.196 -0.03301,-0.1166 0.04275,-0.043 0.04275,-0.4603 -0.167007,-0.087 -0.01551,-0.025 0.124284,-0.437 -0.207782,-0.301 -0.318475,-0.1281 -0.306832,-0.402 -0.355372,-0.6797 -0.378677,-0.235 0.01163,-0.1515 -0.524318,-1.2351 -0.08153,-0.4408 -0.174773,-0.1922 -0.01939,-0.1495 -0.609766,-0.5535 -0.221374,-0.266 0,-0.1243 -0.318485,-0.2681 -0.702979,-0.1184 -0.695213,-0.064 -0.32624,-0.2447 -0.508788,0.2038 -0.376739,0.1593 -0.256332,0.369 -0.09515,0.369 -0.409749,0.5845 -0.170895,0.1787 -0.167007,-0.065 -0.176712,-0.1145 -0.192252,-0.066 -0.30877,-0.1826 0,-0.043 -0.223314,-0.2486 -0.506849,-0.2078 -0.695213,-0.7418 -0.201956,-0.4253 0,-0.8039 -0.318485,-0.6545 -0.05826,-0.3088 -0.172834,-0.1068 -0.116518,-0.2194 -0.499074,-0.2136 -0.112631,-0.1379 -0.679673,-0.7748 -0.137886,-0.3437 -0.454411,-0.2253 -0.132049,-0.4117 -0.291291,-0.334 -0.143702,-0.039 -0.06602,0.4874 0.03301,-0.4952 -1.372947,-0.1806 -1.749687,-0.2777 -0.128161,1.0001 -1.297215,-0.1709 0,-0.062 -2.70511,-0.299 -1.17293,-0.233 -1.621516,-0.9885 -1.437028,-0.8506 -1.184583,-0.7553 -1.815706,-1.0467 -0.01362,-0.025 0.01551,-0.065 0.514614,-0.4389 -1.80988,-0.134 -1.920571,-0.2718 -0.899119,-0.1321 -0.02327,-0.087 0,-0.9223 -0.03301,-0.3555 -0.260221,-0.4291 -0.08153,-0.235 -0.388392,-0.4292 -0.30876,-0.5068 -0.318485,-0.029 -0.135936,-0.035 0.04852,-0.022 -0.09127,-0.435 -0.180599,-0.2699 -0.506849,-0.085 -0.328189,-0.1826 -0.09316,-0.1923 -0.262159,-0.499 -0.3301276,-0.3573 -0.3048829,0 -0.3573208,-0.1961 -0.4660641,-0.1864 -0.3767289,-0.043 -0.1670075,-0.1923 0.031021,-0.1339 0.1747728,-0.7011 0.083519,-0.2078 0,-0.3301 -0.172824,-0.1029 -0.040765,-0.2544 -0.1514671,-0.2738 -0.3262498,-0.5768 -0.1242838,-0.2912 -0.1398142,-0.4623 -0.1650687,-0.5495 -0.3107094,-0.4253 -0.040765,-0.2407 0.056276,-0.272 0.054387,0 0.2660467,-0.2097 0.1359366,-0.4253 -0.132049,-0.37476 -0.2893524,-0.0547 -0.1572935,-0.21168 -0.1883645,-0.33785 -0.017499,-0.77096 0.058264,-0.17678 0.066019,-0.23296 0.060153,-0.30106 -0.5612157,-0.63882 0,-0.13015 0.029132,-0.0467 0.036887,-0.37086 -0.1378755,-0.435 -0.2252717,-0.49325 -0.2679856,-0.45051 -0.1534159,-0.34183 0.087396,-0.33984 0.062142,-0.56117 0.1767116,-0.30882 0.031021,-0.69131 -0.1184574,-0.37872 -0.1670075,-0.43499 -0.2485675,-0.3825 0.068008,-0.26994 0.1262225,-0.3651 0.1767216,-0.0835 0.036887,-0.13005 0.2912913,-0.25244 0.5262572,-1.21957 0.019388,-0.74183 0.1456507,-0.44662 0.071886,-0.16704 -0.2660369,-0.35148 0.1184574,-0.55152 0.071886,-0.83111 0.1747728,-0.26418 0.7942527,-1.26411 0.6369592,-1.36136 0.487421,-1.39814 0.3184746,-0.64478 0.3165358,-1.00591 0.2039049,-0.58642 0.4136364,-0.14953 -0.4000447,-0.52239 0.017499,-0.14954 0.2446795,-0.0288 0.14759,-0.37086 0,-0.0467 c 0,-0.0268 -0.01243,-0.0398 -0.01939,-0.0616 l 0,-0.13791 -0.186426,-0.0835 0.006,-0.19219 0.56899,-0.0795 -0.415575,-0.4175 -0.133997,-0.64866 0.06214,-0.2777 0,-0.70106 -0.002,-0.0169 c -0.007,-0.0497 -0.01869,-0.0905 -0.02525,-0.11464 -0.007,-0.0239 -0.002,-0.0408 -0.002,0.01 l 0,-0.0636 -0.1378755,-0.25244 0.1825485,-0.77096 0.04663,0.0119 0.213609,0.26209 0.283526,0.26994 0.334015,0.20592 0.462176,0.21744 0.297118,0.0616 0.2777,0.14367 0.234975,0.0676 0.01362,0 c 0.152064,0.0258 0.301662,0 0.223323,0 l 0.248567,0 0,-0.29908 0.120397,-0.10688 0.0099,-0.01 0.102917,0.38448 0.372851,-0.73596 -0.006,-0.0696 c -0.008,-0.0935 -0.02466,-0.15281 -0.0349,-0.23305 l 0.03102,-0.0328 -0.05051,-0.0994 c -0.0099,-0.0517 -0.01203,-0.12349 -0.02525,-0.16704 l -0.006,-0.0189 -0.100988,-0.2078 z m -0.831141,0.43688 0.0175,0 0.248567,0 0.02724,0 -0.213619,0.17678 -0.06403,-0.0955 -0.01551,-0.0815 z m 0.320414,0 0.07377,0 -0.07377,0.0815 0,-0.0815 z m 0,0.24668 0.01551,0.0199 -0.01551,0.0428 0,-0.0616 z m 41.673893,5.30343 0.002,0 -0.004,0 0.002,-0.01 z m 2.00602,0.24271 0.03102,0.01 -0.04077,0.0139 0.0099,-0.0199 z m 0.625306,0.23892 0.04077,0.0209 -0.05439,-0.01 0.01362,-0.0139 z m 4.51499,0.41938 -0.104866,0.10679 -0.302934,0.18453 -0.120406,0.0547 0.06801,-0.0795 0.201966,-0.0736 0.258272,-0.19229 z m -1.237011,0.35346 -0.002,0.01 -0.299056,0.14367 0.09515,-0.13592 0.205844,-0.0179 z m 32.731289,2.13808 c 0.02515,0.01 0.183761,0.0388 0.21168,0.0448 l -0.231098,0 c 0,-0.0368 0.01382,-0.0368 0.01939,-0.0448 z m 0.353434,0 0.118457,0 c 0.002,0.01 0.004,0.0199 0.004,0.0199 0,0 0,0 0,0 0,0 -0.141813,0.0119 -0.201956,0.0179 l -0.03301,0 c 0.01064,0 0.05628,-0.0209 0.112631,-0.0408 z m -23.555649,0.7981 c -8e-5,0 0.01064,-10e-5 0.02138,0 l 0.0699,0.0308 -0.203895,0.42525 c -0.004,0 -0.005,0 -0.0099,-0.01 -0.007,-0.01 -0.01253,0 -0.02714,-0.0308 -0.002,0 -4.28e-4,0 -0.002,-0.01 -0.017,-0.0368 -0.01939,-0.0795 -0.01939,-0.0656 l 0,0.0607 c -0.006,-0.01 -0.03311,-0.0467 -0.03301,-0.0467 3e-5,0 -0.01939,-0.0567 -0.01939,-0.0567 0,0 0,0 0,0 l 0.01939,0 0.143702,-0.0179 -0.143702,-0.12618 c 0.01123,-0.0268 0.02336,-0.0547 0.02327,-0.0547 -3e-5,0 0.07576,-0.0676 0.07576,-0.0676 -4.9e-5,10e-5 0.06224,-0.0249 0.06214,-0.0249 -6.9e-5,10e-5 0.04275,-0.01 0.04275,-0.01 z m -0.273812,0.30684 c 0.01322,0.0139 0.006,0.01 0.02138,0.0249 l 0.002,0 c 0.01949,0.0249 0.04146,0.0497 0.06602,0.0756 l 0.02327,0.0249 0.0099,0.0139 c 2e-5,0.01 -8.9e-5,0.01 0,0.0159 l -0.05439,0.0527 -0.122345,-0.01 0,-0.11265 -0.205844,0.0527 0.0349,-0.11643 0.07765,-0.01 0.14759,-0.0179 z m -2.376932,0.66805 0.229149,0.0507 -0.363137,0.29321 0.04275,0.47576 -0.170885,0.2078 -0.530145,0.22918 -0.09316,0.41362 -0.167008,0.0676 -0.304883,0.33795 -0.0524,0.30296 -0.209731,0.0447 0,0.47963 0.06602,0.20582 -0.0874,0.48361 -0.17866,0.45826 0.07964,0.61754 0.01362,0.0308 -0.03102,0.0935 -0.04464,0.11652 -0.05627,0.44663 0.401983,0.68555 0.264098,0.60193 0.112631,0.37484 -0.06403,0.38061 -0.0874,0.54565 -0.242741,0.52239 -0.02138,0.20005 -0.24468,0.23693 -0.314597,0.18255 -0.08541,0.0795 -0.24469,-0.0736 -0.0349,-0.11454 -0.153416,-0.44663 -0.180599,-0.20392 -0.07964,-0.14179 -0.02525,-0.69131 0,0 0.02327,-0.18255 -0.174773,-0.49326 -0.06413,-0.62728 -0.07964,-0.16893 0.0524,-0.16893 0.06801,-0.25055 0.190313,-0.33786 -0.0874,-0.47386 -0.04852,-0.26219 0.006,-0.0219 0.217496,-0.27959 0.02714,-0.51075 -0.05628,-0.0915 0.03102,-0.1204 0.04464,-0.28735 0.24469,-0.51851 0.314587,-0.73993 0.02525,-0.36699 -0.21167,-0.61167 -0.242741,0.14953 0.04464,-0.1903 0.01551,-0.0328 0.167007,0 0.264098,-0.14566 0.01362,0.0159 0.345667,0.11265 0.363138,-0.31658 0.08153,-0.22719 0.01939,-0.01 0.807844,-0.0775 0.182539,-0.24857 0.273812,-0.0119 z m 23.312918,2.24685 0.006,0.01 -0.0099,0.01 0.004,-0.0139 z m -0.0874,0.80973 0.04852,0.0656 -0.139815,0 0.09127,-0.0656 z m -12.92551,2.04094 -0.0099,0.0119 0,0 0.0099,-0.01 z m 13.560521,0.13989 0.30876,0 -0.05439,0.0229 -0.141763,0.0696 -0.112631,-0.0935 z m -15.754905,1.95354 -0.04464,0.0328 -0.01551,-0.0139 0,-0.01 0.06025,-0.0119 z M 9.5359307,1006.66 l 0.1767216,0 0.132049,0.1438 -0.2194354,-0.09 -0.089286,-0.055 z m -0.7961915,0.3515 0.044643,0.053 -0.1106921,0 -0.021377,-0.045 0.087396,0 z m 0.5185018,0.062 0.044643,0.027 -0.019388,0 -0.025255,-0.025 z m 1.992418,1.9109 0.02525,0.019 0.02526,0.047 -0.02138,-0.027 -0.02913,-0.039 z m 51.389393,11.6982 0.002,0 -0.004,0.01 0.002,-0.01 z m -18.61538,6.6687 0.01362,0.022 -0.01551,-0.01 0.002,-0.014 z m 36.129675,2.4895 0.221384,0.087 -0.221384,0.1359 0,-0.2233 z m -0.35925,0.6816 0.04852,0.025 -0.112631,0.041 -0.05826,0.02 0.122345,-0.086 z"/></g>
<!--<text x="0" y="115" fill="#000000" font-size="5px" font-weight="bold" font-family="'Helvetica Neue', Helvetica, Arial-Unicode, Arial, Sans-serif">Created by anbileru adaleru</text><text x="0" y="120" fill="#000000" font-size="5px" font-weight="bold" font-family="'Helvetica Neue', Helvetica, Arial-Unicode, Arial, Sans-serif">from the Noun Project</text>--></svg>